<svg width="298" height="312" viewBox="0 0 298 312" fill="none" xmlns="http://www.w3.org/2000/svg">
<g filter="url(#filter0_d_317_4871)">
<rect x="20" y="16" width="257.18" height="271.547" rx="50" fill="#BBF2BF"/>
</g>
<g filter="url(#filter1_d_317_4871)">
<path d="M97.3059 261.254C95.6301 261.254 94.1236 260.873 92.7864 260.111C91.4491 259.35 90.3912 258.245 89.6125 256.798C88.8339 255.351 88.4446 253.603 88.4446 251.555C88.4446 249.49 88.8339 247.733 89.6125 246.286C90.3912 244.839 91.4491 243.734 92.7864 242.973C94.1236 242.211 95.6301 241.83 97.3059 241.83C98.9817 241.83 100.484 242.211 101.813 242.973C103.15 243.734 104.208 244.839 104.987 246.286C105.765 247.733 106.155 249.49 106.155 251.555C106.155 253.62 105.765 255.376 104.987 256.823C104.208 258.262 103.15 259.362 101.813 260.124C100.484 260.877 98.9817 261.254 97.3059 261.254ZM92.4944 251.555C92.4944 253.552 92.9303 255.08 93.802 256.138C94.6822 257.196 95.8502 257.725 97.3059 257.725C98.7532 257.725 99.9127 257.196 100.784 256.138C101.665 255.08 102.105 253.552 102.105 251.555C102.105 249.549 101.665 248.017 100.784 246.959C99.9127 245.893 98.7532 245.359 97.3059 245.359C95.8502 245.359 94.6822 245.893 93.802 246.959C92.9303 248.017 92.4944 249.549 92.4944 251.555ZM109.125 261V242.084H116.565C118.003 242.084 119.226 242.359 120.234 242.909C121.249 243.459 122.024 244.217 122.557 245.182C123.09 246.146 123.357 247.255 123.357 248.508C123.357 249.76 123.086 250.865 122.544 251.821C122.003 252.778 121.22 253.527 120.196 254.068C119.171 254.602 117.932 254.868 116.476 254.868H113.112V261H109.125ZM113.112 251.669H115.816C116.975 251.669 117.834 251.377 118.393 250.793C118.96 250.201 119.243 249.439 119.243 248.508C119.243 247.56 118.96 246.798 118.393 246.223C117.826 245.647 116.962 245.359 115.803 245.359H113.112V251.669ZM132.662 261H125.959V242.084H132.713C134.617 242.084 136.255 242.465 137.626 243.227C138.997 243.98 140.051 245.063 140.787 246.477C141.532 247.882 141.905 249.566 141.905 251.529C141.905 253.501 141.532 255.194 140.787 256.607C140.051 258.021 138.993 259.108 137.614 259.87C136.234 260.623 134.584 261 132.662 261ZM129.946 257.572H132.485C134.27 257.572 135.625 257.094 136.547 256.138C137.47 255.181 137.931 253.645 137.931 251.529C137.931 249.43 137.47 247.903 136.547 246.946C135.625 245.99 134.27 245.512 132.485 245.512H129.946V257.572ZM159.386 261.254C157.702 261.254 156.195 260.873 154.866 260.111C153.538 259.35 152.488 258.245 151.718 256.798C150.956 255.351 150.575 253.603 150.575 251.555C150.575 249.49 150.961 247.733 151.731 246.286C152.509 244.839 153.563 243.734 154.892 242.973C156.229 242.211 157.727 241.83 159.386 241.83C160.85 241.83 162.166 242.101 163.334 242.643C164.511 243.184 165.471 243.967 166.216 244.991C166.961 246.015 167.418 247.255 167.587 248.711H163.55C163.398 247.67 162.953 246.853 162.217 246.261C161.481 245.66 160.567 245.359 159.475 245.359C158.019 245.359 156.847 245.901 155.958 246.984C155.07 248.059 154.625 249.583 154.625 251.555C154.625 253.569 155.07 255.101 155.958 256.15C156.855 257.2 158.023 257.725 159.462 257.725C160.52 257.725 161.417 257.445 162.154 256.887C162.898 256.328 163.364 255.545 163.55 254.538H167.587C167.443 255.698 167.029 256.789 166.343 257.813C165.666 258.838 164.739 259.667 163.563 260.302C162.395 260.937 161.003 261.254 159.386 261.254ZM174.443 261.267C173.088 261.267 171.963 260.915 171.066 260.213C170.177 259.502 169.733 258.444 169.733 257.039C169.733 255.981 169.978 255.152 170.469 254.551C170.968 253.941 171.624 253.497 172.437 253.218C173.249 252.93 174.121 252.744 175.052 252.659C176.288 252.541 177.168 252.418 177.693 252.291C178.226 252.156 178.492 251.859 178.492 251.402V251.339C178.492 250.755 178.306 250.302 177.934 249.98C177.561 249.659 177.024 249.498 176.322 249.498C175.619 249.498 175.044 249.65 174.595 249.955C174.155 250.26 173.863 250.649 173.719 251.123L170.139 250.552C170.477 249.316 171.188 248.355 172.272 247.67C173.364 246.976 174.718 246.629 176.334 246.629C177.384 246.629 178.37 246.794 179.292 247.124C180.223 247.454 180.976 247.975 181.552 248.686C182.128 249.388 182.415 250.302 182.415 251.428V261H178.696V259.02H178.581C178.234 259.688 177.718 260.23 177.032 260.645C176.355 261.059 175.492 261.267 174.443 261.267ZM173.478 256.912C173.478 257.454 173.672 257.864 174.062 258.144C174.46 258.414 174.959 258.55 175.56 258.55C176.423 258.55 177.13 258.3 177.68 257.801C178.239 257.301 178.518 256.679 178.518 255.935V254.424C178.365 254.525 178.124 254.618 177.794 254.703C177.473 254.788 177.13 254.86 176.766 254.919C176.402 254.97 176.076 255.016 175.788 255.059C175.094 255.16 174.536 255.359 174.113 255.655C173.689 255.943 173.478 256.362 173.478 256.912ZM185.576 261V246.807H189.385V249.295H189.537C189.791 248.415 190.223 247.75 190.832 247.302C191.442 246.845 192.144 246.616 192.94 246.616C193.134 246.616 193.346 246.629 193.574 246.654C193.803 246.68 194.002 246.714 194.171 246.756V250.234C193.985 250.175 193.727 250.129 193.397 250.095C193.075 250.052 192.779 250.031 192.508 250.031C191.645 250.031 190.93 250.306 190.363 250.856C189.795 251.398 189.512 252.105 189.512 252.977V261H185.576ZM201.407 261.229C200.324 261.229 199.347 260.949 198.475 260.391C197.603 259.832 196.913 259.011 196.406 257.928C195.898 256.836 195.644 255.503 195.644 253.929C195.644 252.304 195.906 250.95 196.431 249.866C196.956 248.783 197.654 247.975 198.526 247.441C199.397 246.9 200.35 246.629 201.382 246.629C202.178 246.629 202.842 246.764 203.375 247.035C203.908 247.298 204.34 247.628 204.67 248.025C205 248.423 205.25 248.817 205.419 249.206H205.533V242.084H209.469V261H205.597V258.728H205.419C205.241 259.117 204.983 259.506 204.645 259.896C204.306 260.276 203.87 260.594 203.337 260.848C202.812 261.102 202.169 261.229 201.407 261.229ZM205.622 253.916C205.622 252.646 205.364 251.635 204.848 250.882C204.332 250.129 203.595 249.752 202.639 249.752C201.666 249.752 200.925 250.137 200.417 250.907C199.918 251.677 199.668 252.68 199.668 253.916C199.668 255.143 199.922 256.15 200.43 256.938C200.938 257.716 201.674 258.105 202.639 258.105C203.587 258.105 204.319 257.72 204.835 256.95C205.36 256.18 205.622 255.169 205.622 253.916Z" fill="white"/>
</g>
<g clip-path="url(#clip0_317_4871)" filter="url(#filter2_d_317_4871)">
<g filter="url(#filter3_dii_317_4871)">
<path d="M59.0848 72.3607C57.918 72.3499 56.7611 72.6214 55.6814 73.1595C54.6018 73.6975 53.6208 74.4914 52.7958 75.4948C51.9707 76.4982 51.318 77.6912 50.8756 79.0043C50.4332 80.3174 50.2099 81.7244 50.2188 83.1434V205.483C50.2099 206.902 50.4332 208.309 50.8756 209.622C51.318 210.935 51.9707 212.128 52.7958 213.132C53.6208 214.135 54.6018 214.929 55.6814 215.467C56.7611 216.005 57.918 216.277 59.0848 216.266H239.072C241.423 216.266 243.678 215.13 245.341 213.108C247.004 211.086 247.938 208.343 247.938 205.483V83.1434C247.939 81.6926 247.699 80.2566 247.233 78.9212C246.766 77.5858 246.083 76.3786 245.224 75.3719C244.365 74.3651 243.348 73.5795 242.234 73.0621C241.119 72.5447 239.931 72.3061 238.739 72.3607H167.077V83.2245H130.746V72.3607H59.0848ZM235.672 89.7104V199.078H62.3512V89.7104H235.672Z" fill="#57C091" fill-opacity="0.5" shape-rendering="crispEdges"/>
</g>
<path d="M62.1511 199.078H235.472V89.7103H62.1511V199.078ZM148.078 112.816H223.539V128.301H148.078V112.816ZM148.078 137.868H223.539V144.029H148.078V137.868ZM148.078 154.083H223.539V160.325H148.078V154.083ZM148.078 170.297H223.539V176.54H148.078V170.297ZM106.681 99.0338C110.9 99.0338 115.025 100.555 118.533 103.406C122.041 106.257 124.775 110.309 126.389 115.049C128.004 119.79 128.426 125.006 127.603 130.039C126.78 135.071 124.748 139.694 121.765 143.322C118.782 146.95 114.981 149.421 110.843 150.422C106.705 151.423 102.416 150.909 98.5179 148.946C94.62 146.982 91.2885 143.657 88.9445 139.391C86.6005 135.124 85.3494 130.108 85.3494 124.977C85.3494 118.097 87.5969 111.498 91.5974 106.632C95.5979 101.767 101.024 99.0338 106.681 99.0338ZM74.2836 177.756C74.2836 171.305 76.3906 165.119 80.141 160.558C83.8915 155.996 88.9782 153.434 94.2821 153.434H118.947C124.251 153.434 129.338 155.996 133.088 160.558C136.839 165.119 138.946 171.305 138.946 177.756V189.593H74.2836V177.756Z" fill="white"/>
<g filter="url(#filter4_dii_317_4871)">
<path d="M85.3496 124.977C85.3496 130.108 86.6007 135.124 88.9447 139.391C91.2886 143.657 94.6202 146.982 98.5181 148.946C102.416 150.91 106.705 151.423 110.843 150.422C114.981 149.421 118.782 146.95 121.765 143.322C124.749 139.694 126.78 135.071 127.603 130.039C128.426 125.006 128.004 119.79 126.389 115.049C124.775 110.309 122.041 106.257 118.533 103.406C115.025 100.555 110.9 99.0338 106.681 99.0338C101.024 99.0338 95.598 101.767 91.5975 106.632C87.5971 111.498 85.3496 118.097 85.3496 124.977Z" fill="#57C091"/>
</g>
<g filter="url(#filter5_dii_317_4871)">
<path d="M119.014 153.353H94.3489C89.045 153.353 83.9582 155.915 80.2078 160.477C76.4573 165.038 74.3503 171.224 74.3503 177.675V189.512H139.146V177.756C139.155 174.542 138.639 171.357 137.63 168.386C136.621 165.415 135.137 162.717 133.265 160.448C131.393 158.178 129.169 156.383 126.723 155.165C124.277 153.947 121.657 153.332 119.014 153.353ZM113.814 186.431H97.882L93.2823 157.001H118.414L113.814 186.431Z" fill="#57C091"/>
</g>
<path d="M103.348 166.649L100.882 186.431L103.348 166.649Z" fill="#57C091" fill-opacity="0.3"/>
<path d="M108.348 166.649L110.814 186.431H113.814L118.414 157.001H93.2822L97.8819 186.431H100.882L103.548 166.649L101.148 161.217H110.681L108.281 166.649H108.348Z" fill="white"/>
<g filter="url(#filter6_dii_317_4871)">
<path d="M100.882 186.431H110.881L108.348 166.649H108.281L110.681 161.217H101.015L103.415 166.649H103.348L100.882 186.431Z" fill="#A0FFD5"/>
</g>
<g filter="url(#filter7_dii_317_4871)">
<path d="M223.54 112.816H148.078V128.463H223.54V112.816Z" fill="#57C091"/>
</g>
<g filter="url(#filter8_dii_317_4871)">
<path d="M223.54 137.868H148.078V144.111H223.54V137.868Z" fill="#A0FFD5"/>
</g>
<g filter="url(#filter9_dii_317_4871)">
<path d="M223.54 153.758H148.078V160.001H223.54V153.758Z" fill="#A0FFD5"/>
</g>
<g filter="url(#filter10_dii_317_4871)">
<path d="M223.54 169.73H148.078V175.972H223.54V169.73Z" fill="#A0FFD5"/>
</g>
<g filter="url(#filter11_dii_317_4871)">
<path d="M130.746 72.3606V83.2245H167.077V72.3606V47.2279H130.746V72.3606Z" fill="#A0FFD5"/>
</g>
</g>
<defs>
<filter id="filter0_d_317_4871" x="0" y="0" width="297.18" height="311.547" filterUnits="userSpaceOnUse" color-interpolation-filters="sRGB">
<feFlood flood-opacity="0" result="BackgroundImageFix"/>
<feColorMatrix in="SourceAlpha" type="matrix" values="0 0 0 0 0 0 0 0 0 0 0 0 0 0 0 0 0 0 127 0" result="hardAlpha"/>
<feOffset dy="4"/>
<feGaussianBlur stdDeviation="10"/>
<feComposite in2="hardAlpha" operator="out"/>
<feColorMatrix type="matrix" values="0 0 0 0 0 0 0 0 0 0 0 0 0 0 0 0 0 0 0.25 0"/>
<feBlend mode="normal" in2="BackgroundImageFix" result="effect1_dropShadow_317_4871"/>
<feBlend mode="normal" in="SourceGraphic" in2="effect1_dropShadow_317_4871" result="shape"/>
</filter>
<filter id="filter1_d_317_4871" x="84.4446" y="241.83" width="129.024" height="27.4365" filterUnits="userSpaceOnUse" color-interpolation-filters="sRGB">
<feFlood flood-opacity="0" result="BackgroundImageFix"/>
<feColorMatrix in="SourceAlpha" type="matrix" values="0 0 0 0 0 0 0 0 0 0 0 0 0 0 0 0 0 0 127 0" result="hardAlpha"/>
<feOffset dy="4"/>
<feGaussianBlur stdDeviation="2"/>
<feComposite in2="hardAlpha" operator="out"/>
<feColorMatrix type="matrix" values="0 0 0 0 0 0 0 0 0 0 0 0 0 0 0 0 0 0 0.25 0"/>
<feBlend mode="normal" in2="BackgroundImageFix" result="effect1_dropShadow_317_4871"/>
<feBlend mode="normal" in="SourceGraphic" in2="effect1_dropShadow_317_4871" result="shape"/>
</filter>
<filter id="filter2_d_317_4871" x="46.2188" y="47.2279" width="205.386" height="177.038" filterUnits="userSpaceOnUse" color-interpolation-filters="sRGB">
<feFlood flood-opacity="0" result="BackgroundImageFix"/>
<feColorMatrix in="SourceAlpha" type="matrix" values="0 0 0 0 0 0 0 0 0 0 0 0 0 0 0 0 0 0 127 0" result="hardAlpha"/>
<feOffset dy="4"/>
<feGaussianBlur stdDeviation="2"/>
<feComposite in2="hardAlpha" operator="out"/>
<feColorMatrix type="matrix" values="0 0 0 0 0 0 0 0 0 0 0 0 0 0 0 0 0 0 0.25 0"/>
<feBlend mode="normal" in2="BackgroundImageFix" result="effect1_dropShadow_317_4871"/>
<feBlend mode="normal" in="SourceGraphic" in2="effect1_dropShadow_317_4871" result="shape"/>
</filter>
<filter id="filter3_dii_317_4871" x="48.2185" y="64.353" width="213.719" height="165.913" filterUnits="userSpaceOnUse" color-interpolation-filters="sRGB">
<feFlood flood-opacity="0" result="BackgroundImageFix"/>
<feColorMatrix in="SourceAlpha" type="matrix" values="0 0 0 0 0 0 0 0 0 0 0 0 0 0 0 0 0 0 127 0" result="hardAlpha"/>
<feOffset dx="6" dy="6"/>
<feGaussianBlur stdDeviation="4"/>
<feComposite in2="hardAlpha" operator="out"/>
<feColorMatrix type="matrix" values="0 0 0 0 0.298039 0 0 0 0 0.631373 0 0 0 0 0.482353 0 0 0 0.4 0"/>
<feBlend mode="normal" in2="BackgroundImageFix" result="effect1_dropShadow_317_4871"/>
<feBlend mode="normal" in="SourceGraphic" in2="effect1_dropShadow_317_4871" result="shape"/>
<feColorMatrix in="SourceAlpha" type="matrix" values="0 0 0 0 0 0 0 0 0 0 0 0 0 0 0 0 0 0 127 0" result="hardAlpha"/>
<feOffset dx="-1" dy="-13"/>
<feGaussianBlur stdDeviation="4"/>
<feComposite in2="hardAlpha" operator="arithmetic" k2="-1" k3="1"/>
<feColorMatrix type="matrix" values="0 0 0 0 0.294118 0 0 0 0 0.647059 0 0 0 0 0.490196 0 0 0 1 0"/>
<feBlend mode="normal" in2="shape" result="effect2_innerShadow_317_4871"/>
<feColorMatrix in="SourceAlpha" type="matrix" values="0 0 0 0 0 0 0 0 0 0 0 0 0 0 0 0 0 0 127 0" result="hardAlpha"/>
<feOffset dx="-2" dy="5"/>
<feGaussianBlur stdDeviation="6.5"/>
<feComposite in2="hardAlpha" operator="arithmetic" k2="-1" k3="1"/>
<feColorMatrix type="matrix" values="0 0 0 0 0 0 0 0 0 0.316667 0 0 0 0 0.174921 0 0 0 1 0"/>
<feBlend mode="normal" in2="effect2_innerShadow_317_4871" result="effect3_innerShadow_317_4871"/>
</filter>
<filter id="filter4_dii_317_4871" x="83.3496" y="91.0338" width="58.6636" height="73.887" filterUnits="userSpaceOnUse" color-interpolation-filters="sRGB">
<feFlood flood-opacity="0" result="BackgroundImageFix"/>
<feColorMatrix in="SourceAlpha" type="matrix" values="0 0 0 0 0 0 0 0 0 0 0 0 0 0 0 0 0 0 127 0" result="hardAlpha"/>
<feOffset dx="6" dy="6"/>
<feGaussianBlur stdDeviation="4"/>
<feComposite in2="hardAlpha" operator="out"/>
<feColorMatrix type="matrix" values="0 0 0 0 0.298039 0 0 0 0 0.631373 0 0 0 0 0.482353 0 0 0 0.4 0"/>
<feBlend mode="normal" in2="BackgroundImageFix" result="effect1_dropShadow_317_4871"/>
<feBlend mode="normal" in="SourceGraphic" in2="effect1_dropShadow_317_4871" result="shape"/>
<feColorMatrix in="SourceAlpha" type="matrix" values="0 0 0 0 0 0 0 0 0 0 0 0 0 0 0 0 0 0 127 0" result="hardAlpha"/>
<feOffset dx="-1" dy="-13"/>
<feGaussianBlur stdDeviation="4"/>
<feComposite in2="hardAlpha" operator="arithmetic" k2="-1" k3="1"/>
<feColorMatrix type="matrix" values="0 0 0 0 0.294118 0 0 0 0 0.647059 0 0 0 0 0.490196 0 0 0 1 0"/>
<feBlend mode="normal" in2="shape" result="effect2_innerShadow_317_4871"/>
<feColorMatrix in="SourceAlpha" type="matrix" values="0 0 0 0 0 0 0 0 0 0 0 0 0 0 0 0 0 0 127 0" result="hardAlpha"/>
<feOffset dx="-2" dy="5"/>
<feGaussianBlur stdDeviation="6.5"/>
<feComposite in2="hardAlpha" operator="arithmetic" k2="-1" k3="1"/>
<feColorMatrix type="matrix" values="0 0 0 0 0 0 0 0 0 0.316667 0 0 0 0 0.174921 0 0 0 1 0"/>
<feBlend mode="normal" in2="effect2_innerShadow_317_4871" result="effect3_innerShadow_317_4871"/>
</filter>
<filter id="filter5_dii_317_4871" x="72.3503" y="145.352" width="80.7954" height="58.1593" filterUnits="userSpaceOnUse" color-interpolation-filters="sRGB">
<feFlood flood-opacity="0" result="BackgroundImageFix"/>
<feColorMatrix in="SourceAlpha" type="matrix" values="0 0 0 0 0 0 0 0 0 0 0 0 0 0 0 0 0 0 127 0" result="hardAlpha"/>
<feOffset dx="6" dy="6"/>
<feGaussianBlur stdDeviation="4"/>
<feComposite in2="hardAlpha" operator="out"/>
<feColorMatrix type="matrix" values="0 0 0 0 0.298039 0 0 0 0 0.631373 0 0 0 0 0.482353 0 0 0 0.4 0"/>
<feBlend mode="normal" in2="BackgroundImageFix" result="effect1_dropShadow_317_4871"/>
<feBlend mode="normal" in="SourceGraphic" in2="effect1_dropShadow_317_4871" result="shape"/>
<feColorMatrix in="SourceAlpha" type="matrix" values="0 0 0 0 0 0 0 0 0 0 0 0 0 0 0 0 0 0 127 0" result="hardAlpha"/>
<feOffset dx="-1" dy="-13"/>
<feGaussianBlur stdDeviation="4"/>
<feComposite in2="hardAlpha" operator="arithmetic" k2="-1" k3="1"/>
<feColorMatrix type="matrix" values="0 0 0 0 0.294118 0 0 0 0 0.647059 0 0 0 0 0.490196 0 0 0 1 0"/>
<feBlend mode="normal" in2="shape" result="effect2_innerShadow_317_4871"/>
<feColorMatrix in="SourceAlpha" type="matrix" values="0 0 0 0 0 0 0 0 0 0 0 0 0 0 0 0 0 0 127 0" result="hardAlpha"/>
<feOffset dx="-2" dy="5"/>
<feGaussianBlur stdDeviation="6.5"/>
<feComposite in2="hardAlpha" operator="arithmetic" k2="-1" k3="1"/>
<feColorMatrix type="matrix" values="0 0 0 0 0 0 0 0 0 0.316667 0 0 0 0 0.174921 0 0 0 1 0"/>
<feBlend mode="normal" in2="effect2_innerShadow_317_4871" result="effect3_innerShadow_317_4871"/>
</filter>
<filter id="filter6_dii_317_4871" x="91.8818" y="152.217" width="33.9993" height="50.2139" filterUnits="userSpaceOnUse" color-interpolation-filters="sRGB">
<feFlood flood-opacity="0" result="BackgroundImageFix"/>
<feColorMatrix in="SourceAlpha" type="matrix" values="0 0 0 0 0 0 0 0 0 0 0 0 0 0 0 0 0 0 127 0" result="hardAlpha"/>
<feOffset dx="6" dy="6"/>
<feGaussianBlur stdDeviation="4"/>
<feComposite in2="hardAlpha" operator="out"/>
<feColorMatrix type="matrix" values="0 0 0 0 0.0235294 0 0 0 0 0.478431 0 0 0 0 0.27451 0 0 0 0.3 0"/>
<feBlend mode="normal" in2="BackgroundImageFix" result="effect1_dropShadow_317_4871"/>
<feBlend mode="normal" in="SourceGraphic" in2="effect1_dropShadow_317_4871" result="shape"/>
<feColorMatrix in="SourceAlpha" type="matrix" values="0 0 0 0 0 0 0 0 0 0 0 0 0 0 0 0 0 0 127 0" result="hardAlpha"/>
<feOffset dx="-10" dy="-11"/>
<feGaussianBlur stdDeviation="4.5"/>
<feComposite in2="hardAlpha" operator="arithmetic" k2="-1" k3="1"/>
<feColorMatrix type="matrix" values="0 0 0 0 0.0235294 0 0 0 0 0.478431 0 0 0 0 0.27451 0 0 0 0.5 0"/>
<feBlend mode="normal" in2="shape" result="effect2_innerShadow_317_4871"/>
<feColorMatrix in="SourceAlpha" type="matrix" values="0 0 0 0 0 0 0 0 0 0 0 0 0 0 0 0 0 0 127 0" result="hardAlpha"/>
<feOffset dx="15" dy="16"/>
<feGaussianBlur stdDeviation="9.5"/>
<feComposite in2="hardAlpha" operator="arithmetic" k2="-1" k3="1"/>
<feColorMatrix type="matrix" values="0 0 0 0 0.0235294 0 0 0 0 0.478431 0 0 0 0 0.27451 0 0 0 0.4 0"/>
<feBlend mode="normal" in2="effect2_innerShadow_317_4871" result="effect3_innerShadow_317_4871"/>
</filter>
<filter id="filter7_dii_317_4871" x="146.078" y="104.816" width="91.4612" height="37.6472" filterUnits="userSpaceOnUse" color-interpolation-filters="sRGB">
<feFlood flood-opacity="0" result="BackgroundImageFix"/>
<feColorMatrix in="SourceAlpha" type="matrix" values="0 0 0 0 0 0 0 0 0 0 0 0 0 0 0 0 0 0 127 0" result="hardAlpha"/>
<feOffset dx="6" dy="6"/>
<feGaussianBlur stdDeviation="4"/>
<feComposite in2="hardAlpha" operator="out"/>
<feColorMatrix type="matrix" values="0 0 0 0 0.298039 0 0 0 0 0.631373 0 0 0 0 0.482353 0 0 0 0.4 0"/>
<feBlend mode="normal" in2="BackgroundImageFix" result="effect1_dropShadow_317_4871"/>
<feBlend mode="normal" in="SourceGraphic" in2="effect1_dropShadow_317_4871" result="shape"/>
<feColorMatrix in="SourceAlpha" type="matrix" values="0 0 0 0 0 0 0 0 0 0 0 0 0 0 0 0 0 0 127 0" result="hardAlpha"/>
<feOffset dx="-1" dy="-13"/>
<feGaussianBlur stdDeviation="4"/>
<feComposite in2="hardAlpha" operator="arithmetic" k2="-1" k3="1"/>
<feColorMatrix type="matrix" values="0 0 0 0 0.294118 0 0 0 0 0.647059 0 0 0 0 0.490196 0 0 0 1 0"/>
<feBlend mode="normal" in2="shape" result="effect2_innerShadow_317_4871"/>
<feColorMatrix in="SourceAlpha" type="matrix" values="0 0 0 0 0 0 0 0 0 0 0 0 0 0 0 0 0 0 127 0" result="hardAlpha"/>
<feOffset dx="-2" dy="5"/>
<feGaussianBlur stdDeviation="6.5"/>
<feComposite in2="hardAlpha" operator="arithmetic" k2="-1" k3="1"/>
<feColorMatrix type="matrix" values="0 0 0 0 0 0 0 0 0 0.316667 0 0 0 0 0.174921 0 0 0 1 0"/>
<feBlend mode="normal" in2="effect2_innerShadow_317_4871" result="effect3_innerShadow_317_4871"/>
</filter>
<filter id="filter8_dii_317_4871" x="139.078" y="128.868" width="99.4612" height="31.2427" filterUnits="userSpaceOnUse" color-interpolation-filters="sRGB">
<feFlood flood-opacity="0" result="BackgroundImageFix"/>
<feColorMatrix in="SourceAlpha" type="matrix" values="0 0 0 0 0 0 0 0 0 0 0 0 0 0 0 0 0 0 127 0" result="hardAlpha"/>
<feOffset dx="6" dy="6"/>
<feGaussianBlur stdDeviation="4"/>
<feComposite in2="hardAlpha" operator="out"/>
<feColorMatrix type="matrix" values="0 0 0 0 0.0235294 0 0 0 0 0.478431 0 0 0 0 0.27451 0 0 0 0.3 0"/>
<feBlend mode="normal" in2="BackgroundImageFix" result="effect1_dropShadow_317_4871"/>
<feBlend mode="normal" in="SourceGraphic" in2="effect1_dropShadow_317_4871" result="shape"/>
<feColorMatrix in="SourceAlpha" type="matrix" values="0 0 0 0 0 0 0 0 0 0 0 0 0 0 0 0 0 0 127 0" result="hardAlpha"/>
<feOffset dx="-10" dy="-11"/>
<feGaussianBlur stdDeviation="4.5"/>
<feComposite in2="hardAlpha" operator="arithmetic" k2="-1" k3="1"/>
<feColorMatrix type="matrix" values="0 0 0 0 0.0235294 0 0 0 0 0.478431 0 0 0 0 0.27451 0 0 0 0.5 0"/>
<feBlend mode="normal" in2="shape" result="effect2_innerShadow_317_4871"/>
<feColorMatrix in="SourceAlpha" type="matrix" values="0 0 0 0 0 0 0 0 0 0 0 0 0 0 0 0 0 0 127 0" result="hardAlpha"/>
<feOffset dx="15" dy="16"/>
<feGaussianBlur stdDeviation="9.5"/>
<feComposite in2="hardAlpha" operator="arithmetic" k2="-1" k3="1"/>
<feColorMatrix type="matrix" values="0 0 0 0 0.0235294 0 0 0 0 0.478431 0 0 0 0 0.27451 0 0 0 0.4 0"/>
<feBlend mode="normal" in2="effect2_innerShadow_317_4871" result="effect3_innerShadow_317_4871"/>
</filter>
<filter id="filter9_dii_317_4871" x="139.078" y="144.758" width="99.4612" height="31.2427" filterUnits="userSpaceOnUse" color-interpolation-filters="sRGB">
<feFlood flood-opacity="0" result="BackgroundImageFix"/>
<feColorMatrix in="SourceAlpha" type="matrix" values="0 0 0 0 0 0 0 0 0 0 0 0 0 0 0 0 0 0 127 0" result="hardAlpha"/>
<feOffset dx="6" dy="6"/>
<feGaussianBlur stdDeviation="4"/>
<feComposite in2="hardAlpha" operator="out"/>
<feColorMatrix type="matrix" values="0 0 0 0 0.0235294 0 0 0 0 0.478431 0 0 0 0 0.27451 0 0 0 0.3 0"/>
<feBlend mode="normal" in2="BackgroundImageFix" result="effect1_dropShadow_317_4871"/>
<feBlend mode="normal" in="SourceGraphic" in2="effect1_dropShadow_317_4871" result="shape"/>
<feColorMatrix in="SourceAlpha" type="matrix" values="0 0 0 0 0 0 0 0 0 0 0 0 0 0 0 0 0 0 127 0" result="hardAlpha"/>
<feOffset dx="-10" dy="-11"/>
<feGaussianBlur stdDeviation="4.5"/>
<feComposite in2="hardAlpha" operator="arithmetic" k2="-1" k3="1"/>
<feColorMatrix type="matrix" values="0 0 0 0 0.0235294 0 0 0 0 0.478431 0 0 0 0 0.27451 0 0 0 0.5 0"/>
<feBlend mode="normal" in2="shape" result="effect2_innerShadow_317_4871"/>
<feColorMatrix in="SourceAlpha" type="matrix" values="0 0 0 0 0 0 0 0 0 0 0 0 0 0 0 0 0 0 127 0" result="hardAlpha"/>
<feOffset dx="15" dy="16"/>
<feGaussianBlur stdDeviation="9.5"/>
<feComposite in2="hardAlpha" operator="arithmetic" k2="-1" k3="1"/>
<feColorMatrix type="matrix" values="0 0 0 0 0.0235294 0 0 0 0 0.478431 0 0 0 0 0.27451 0 0 0 0.4 0"/>
<feBlend mode="normal" in2="effect2_innerShadow_317_4871" result="effect3_innerShadow_317_4871"/>
</filter>
<filter id="filter10_dii_317_4871" x="139.078" y="160.73" width="99.4612" height="31.2427" filterUnits="userSpaceOnUse" color-interpolation-filters="sRGB">
<feFlood flood-opacity="0" result="BackgroundImageFix"/>
<feColorMatrix in="SourceAlpha" type="matrix" values="0 0 0 0 0 0 0 0 0 0 0 0 0 0 0 0 0 0 127 0" result="hardAlpha"/>
<feOffset dx="6" dy="6"/>
<feGaussianBlur stdDeviation="4"/>
<feComposite in2="hardAlpha" operator="out"/>
<feColorMatrix type="matrix" values="0 0 0 0 0.0235294 0 0 0 0 0.478431 0 0 0 0 0.27451 0 0 0 0.3 0"/>
<feBlend mode="normal" in2="BackgroundImageFix" result="effect1_dropShadow_317_4871"/>
<feBlend mode="normal" in="SourceGraphic" in2="effect1_dropShadow_317_4871" result="shape"/>
<feColorMatrix in="SourceAlpha" type="matrix" values="0 0 0 0 0 0 0 0 0 0 0 0 0 0 0 0 0 0 127 0" result="hardAlpha"/>
<feOffset dx="-10" dy="-11"/>
<feGaussianBlur stdDeviation="4.5"/>
<feComposite in2="hardAlpha" operator="arithmetic" k2="-1" k3="1"/>
<feColorMatrix type="matrix" values="0 0 0 0 0.0235294 0 0 0 0 0.478431 0 0 0 0 0.27451 0 0 0 0.5 0"/>
<feBlend mode="normal" in2="shape" result="effect2_innerShadow_317_4871"/>
<feColorMatrix in="SourceAlpha" type="matrix" values="0 0 0 0 0 0 0 0 0 0 0 0 0 0 0 0 0 0 127 0" result="hardAlpha"/>
<feOffset dx="15" dy="16"/>
<feGaussianBlur stdDeviation="9.5"/>
<feComposite in2="hardAlpha" operator="arithmetic" k2="-1" k3="1"/>
<feColorMatrix type="matrix" values="0 0 0 0 0.0235294 0 0 0 0 0.478431 0 0 0 0 0.27451 0 0 0 0.4 0"/>
<feBlend mode="normal" in2="effect2_innerShadow_317_4871" result="effect3_innerShadow_317_4871"/>
</filter>
<filter id="filter11_dii_317_4871" x="121.746" y="38.2279" width="60.3308" height="60.9966" filterUnits="userSpaceOnUse" color-interpolation-filters="sRGB">
<feFlood flood-opacity="0" result="BackgroundImageFix"/>
<feColorMatrix in="SourceAlpha" type="matrix" values="0 0 0 0 0 0 0 0 0 0 0 0 0 0 0 0 0 0 127 0" result="hardAlpha"/>
<feOffset dx="6" dy="6"/>
<feGaussianBlur stdDeviation="4"/>
<feComposite in2="hardAlpha" operator="out"/>
<feColorMatrix type="matrix" values="0 0 0 0 0.0235294 0 0 0 0 0.478431 0 0 0 0 0.27451 0 0 0 0.3 0"/>
<feBlend mode="normal" in2="BackgroundImageFix" result="effect1_dropShadow_317_4871"/>
<feBlend mode="normal" in="SourceGraphic" in2="effect1_dropShadow_317_4871" result="shape"/>
<feColorMatrix in="SourceAlpha" type="matrix" values="0 0 0 0 0 0 0 0 0 0 0 0 0 0 0 0 0 0 127 0" result="hardAlpha"/>
<feOffset dx="-10" dy="-11"/>
<feGaussianBlur stdDeviation="4.5"/>
<feComposite in2="hardAlpha" operator="arithmetic" k2="-1" k3="1"/>
<feColorMatrix type="matrix" values="0 0 0 0 0.0235294 0 0 0 0 0.478431 0 0 0 0 0.27451 0 0 0 0.5 0"/>
<feBlend mode="normal" in2="shape" result="effect2_innerShadow_317_4871"/>
<feColorMatrix in="SourceAlpha" type="matrix" values="0 0 0 0 0 0 0 0 0 0 0 0 0 0 0 0 0 0 127 0" result="hardAlpha"/>
<feOffset dx="15" dy="16"/>
<feGaussianBlur stdDeviation="9.5"/>
<feComposite in2="hardAlpha" operator="arithmetic" k2="-1" k3="1"/>
<feColorMatrix type="matrix" values="0 0 0 0 0.0235294 0 0 0 0 0.478431 0 0 0 0 0.27451 0 0 0 0.4 0"/>
<feBlend mode="normal" in2="effect2_innerShadow_317_4871" result="effect3_innerShadow_317_4871"/>
</filter>
<clipPath id="clip0_317_4871">
<rect width="197.386" height="169.038" fill="white" transform="translate(50.2188 47.2279)"/>
</clipPath>
</defs>
</svg>
